<?xml version="1.0" encoding="utf-8"?>
<!DOCTYPE svg PUBLIC "-//W3C//DTD SVG 1.0//EN" "http://www.w3.org/TR/2001/REC-SVG-20010904/DTD/svg10.dtd">
<svg version="1.0" xmlns="http://www.w3.org/2000/svg" width="1920px" height="1920px" viewBox="0 0 1920 1920" preserveAspectRatio="xMidYMid meet">
 <g fill="#000000">
  <path d="M1917 1208 c0 -632.2 0.2 -712 1.5 -712 1.3 0 1.5 79.8 1.5 712 0 632.2 -0.2 712 -1.5 712 -1.3 0 -1.5 -79.8 -1.5 -712z"/>
  <path d="M498 1695 c0 -3 0.3 -3.4 148.1 -201 73.2 -97.8 148.2 -198.1 152.7 -204.3 2.6 -3.4 4 -6.2 3.5 -7 -0.9 -1.5 -40.9 -55.1 -117.3 -157.2 -259.5 -346.8 -248 -331.3 -248 -334.5 l0 -3 146 0 146.1 0 42.7 57.3 c23.6 31.4 72.3 96.6 108.3 144.7 36 48.1 66.5 89 67.8 90.8 l2.4 3.4 4 -3.9 c3.8 -3.6 24 -30.4 155.7 -206.6 l59.5 -79.6 140.5 -0.1 c77.3 0 142.9 -0.3 145.8 -0.6 l5.2 -0.7 0 4.1 c0 3.9 -2.7 7.7 -43.7 62.6 -24.1 32.1 -64.6 86.2 -90 120.2 -25.5 34.1 -66.9 89.4 -92 123.1 -25.2 33.6 -62.7 83.7 -83.3 111.2 -20.6 27.6 -39 52.3 -40.8 54.9 -1.8 2.6 -5.2 7.2 -7.5 10.3 -2.3 3.1 -37.1 49.5 -77.3 103 -40.1 53.6 -85.6 114.3 -101 134.9 -15.4 20.6 -52.2 69.8 -81.7 109.3 l-53.7 71.7 -146 0 -146 0 0 -3z m282.8 -102.2 c15.3 -20.5 48.5 -65 73.8 -98.8 123 -164.5 153.1 -204.7 155 -207.5 l2.1 -3 -34.1 -45.6 c-18.8 -25 -51.2 -68.4 -72.2 -96.5 -21 -28 -67 -89.6 -102.4 -136.9 -35.4 -47.3 -74.9 -100.1 -87.7 -117.2 l-23.4 -31.3 -59.9 0 c-33 0 -60 0.2 -60 0.5 0 0.2 35.4 47.8 78.8 105.7 43.3 57.9 100.8 134.8 127.7 170.8 27 36 62.8 84 79.7 106.5 28.1 37.4 30.7 41.3 30.8 44.9 0 2.9 -0.7 4.7 -2.4 6.5 -1.4 1.5 -8.7 11 -16.3 21.2 -7.6 10.2 -31.8 42.6 -53.9 72 -84.2 112.2 -183.4 245 -183.4 245.4 0 0.3 27 0.5 60 0.5 l59.9 0 27.9 -37.2z m281.4 -378.5 c4.7 -4.8 27 -33.7 58.4 -75.8 27.9 -37.4 73.5 -98.4 101.3 -135.5 27.7 -37.1 62.4 -83.5 76.9 -103 14.6 -19.5 26.9 -36.1 27.5 -36.7 0.7 -1 -11.3 -1.3 -59.4 -1.3 l-60.4 0.1 -25.5 34.2 c-112.9 151.5 -175.2 234.2 -180.5 239.7 l-6.4 6.5 29.7 39.7 c16.3 21.9 29.9 39.8 30.2 39.8 0.3 0 4 -3.5 8.2 -7.7z"/>
 </g>
 <g fill="#ffffff">
  <path d="M0 960 l0 -960 960.2 0 960.1 0 -0.6 373.7 c-0.4 205.5 -0.7 637.5 -0.7 960 l0 586.3 -959.5 0 -959.5 0 0 -960z m840.7 663.3 c29.5 -39.5 66.3 -88.7 81.7 -109.3 15.4 -20.6 60.9 -81.3 101 -134.9 40.2 -53.5 75 -99.9 77.3 -103 2.3 -3.1 5.7 -7.7 7.5 -10.3 1.8 -2.6 20.2 -27.3 40.8 -54.9 20.6 -27.5 58.1 -77.6 83.3 -111.2 25.1 -33.7 66.5 -89 92 -123.1 25.4 -34 65.9 -88.1 90 -120.2 24 -32.2 43.7 -58.8 43.7 -59.2 0 -0.4 -64.2 -0.6 -142.7 -0.4 l-142.8 0.3 -59.5 79.6 c-32.7 43.8 -79.7 106.6 -104.4 139.7 -38.4 51.4 -56 73.6 -58.7 73.6 -0.3 0 -2.1 -2.1 -4 -4.7 -1.8 -2.7 -32.8 -44.2 -68.8 -92.3 -36 -48.1 -84.7 -113.3 -108.3 -144.7 l-42.7 -57.3 -143.1 0 -143 0 16.3 21.7 c9 12 28.9 38.7 44.3 59.3 15.4 20.6 52.1 69.7 81.5 109 209 279.3 225.9 301.9 225.9 302.6 0 1 -16.4 23 -164.9 221.4 -29.4 39.3 -66.1 88.4 -81.5 109 -15.4 20.6 -35.3 47.3 -44.3 59.3 l-16.3 21.7 143 0 143 0 53.7 -71.7z"/>
  <path d="M625.8 1631.8 c0.5 -0.7 33.9 -45.4 74.3 -99.3 40.3 -53.9 91.3 -122 113.3 -151.4 22.1 -29.4 46.3 -61.8 53.9 -72 7.6 -10.2 15 -19.9 16.5 -21.4 2.2 -2.3 2.4 -3.1 1.5 -4.6 -0.7 -1 -26 -35.1 -56.4 -75.7 -30.4 -40.7 -67 -89.6 -81.4 -108.9 -41.3 -55.4 -181.6 -242.9 -182.7 -244.2 -0.8 -1 12.2 -1.3 64.5 -1.3 l65.6 0 26.4 35.2 c14.5 19.4 49.9 66.8 78.7 105.3 62.8 83.9 110.2 147.4 170.4 228 24.7 33 45.3 60.5 45.8 61.1 0.6 0.8 -7.2 12 -23.3 33.5 -13.4 17.8 -34.7 46.4 -47.4 63.4 -12.7 17.1 -49.4 66.1 -81.5 109 -32.1 42.9 -69.5 93 -83.2 111.3 l-24.9 33.2 -65.5 0 c-52.4 0 -65.4 -0.3 -64.6 -1.2z"/>
  <path d="M1022 1186.8 c-17.3 -23.2 -31.9 -42.8 -32.4 -43.6 -0.6 -1 1.2 -3.5 6.7 -9.1 6.6 -6.7 58.4 -75.3 181.7 -240.8 l25.5 -34.2 65.6 -0.1 65.7 0 -35.7 47.8 c-219.8 293.9 -228.3 305.2 -237.2 313.9 l-8.4 8.2 -31.5 -42.1z"/>
 </g>
</svg>